<svg id="Shadow" xmlns="http://www.w3.org/2000/svg" viewBox="0 0 962.7 638.9"><title>43040 [Converti]</title><path d="M504,626.12c-28.19.08-56.39,0.76-84.53,3.89-10.61,1.18-21,3.78-31.64,4.82-21.24,2.09-42.11,6-63.43,7.79-17.17,1.45-34.41,2.3-51.53,4.14a181.34,181.34,0,0,1-49.74-1.52c-11.79-2.11-23.63-3.3-35.23-6.68-13-3.79-27.05-6.5-40.57-6.4-19.27.14-38,.16-56.47,6.85-6.47,2.35-14.4,6.21-19.31,11.14C60.29,661.43,58.77,689.58,70,701.28c18.92,19.69,59.3,27.42,85.83,27.79,29.06,0.4,57.3-1.76,86.4-3,27-1.18,54-2.86,81.11-2.8,55.33,0.12,110.66,0,165.89-3.7,51.89-3.47,103.91-2.28,155.91-2.28,53.33,0,106.29.42,159.23,7.51,23.07,3.09,46.57,4.17,69.75,6.33,20.76,1.94,40.71,0,61.39-1.83a146.53,146.53,0,0,0,50.39-13.5c12.49-6,34.75-24.51,38.58-38.75,10.74-39.93-151.3-39-176.18-38.88-27.83.1-55.88,1-83.69,0-11.7-.45-23.22-2.73-34.64-5.24s-22.83-1.86-34.36-2.91c-48.09-4.37-96.29-3.73-144.54-3.73C535.38,626.21,519.67,626.07,504,626.12Z" transform="translate(-62.3 -93)" style="fill:#f1f2f2"/><path d="M371.87,302.75c0.14-.12.3-0.26,0.46-0.43a7.45,7.45,0,0,0,1.93-6.24l-4.11-1a16.22,16.22,0,0,1-2.83,4.24,1,1,0,0,1-1.81-.09,21.89,21.89,0,0,1-4.14-15c0,0.31-3.73-.52-4.07-0.63a4.43,4.43,0,0,0-3.85,0,2.86,2.86,0,0,0-.77.27l-2.55.9a2.08,2.08,0,0,0-1.77,2.48q0,7.46,0,14.91a4.82,4.82,0,0,0,.24,1.84,4.45,4.45,0,0,0,1.3,1.59,28.34,28.34,0,0,0,8.1,4.92,3.44,3.44,0,0,1,1.47.87,3.24,3.24,0,0,1,.53,1.22l2.28,8.25a33.55,33.55,0,0,1,10.82-1.76,22.35,22.35,0,0,0-1.3-11.21,8.93,8.93,0,0,1-1-3.4A2,2,0,0,1,371.87,302.75Z" transform="translate(-62.3 -93)" style="fill:#eac1a4"/><polygon points="294.71 219 311.84 216.2 329.32 264.02 370.6 256.99 361.61 312.01 309.1 280.56 294.71 219" style="fill:#ebb044"/><g id="_Groupe_" data-name="&lt;Groupe&gt;"><path id="_Tracé_" data-name="&lt;Tracé&gt;" d="M641.89,584.18l0.63,38.11c-0.26,10.57.7,21.12,1.34,31.65,0.6,9.79-1.38,19.88,3.27,29,1.46,2.84,4.56,4.83,6.91,1.54,1.82-2.53,1-6.91,1.43-9.85,3.37-22.09,9.65-43.64,12.79-65.77C671.54,585.62,662.57,586.23,641.89,584.18Z" transform="translate(-62.3 -93)" style="fill:#eacdb0"/></g><polygon points="581.75 583.38 579.3 589.74 591.36 600.35 602.41 600.81 605.98 594.98 591.12 582.06 581.75 583.38" style="fill:#262d3a"/><g id="_Groupe_2" data-name="&lt;Groupe&gt;"><path id="_Tracé_2" data-name="&lt;Tracé&gt;" d="M614.89,584.55l-7,37.48c-2.41,16.77-7.89,33.09-10.3,49.86-0.55,3.85-.27,8.07-1.89,11.71s-4.66,3.7-7.38,1.28c-3.65-3.23-2-9-1.9-13.43,0.45-29.42-1.87-58.43-2.42-87.9a1.31,1.31,0,0,1,.31-1.07,1.27,1.27,0,0,1,.9-0.17C588.12,582.49,614.74,585.36,614.89,584.55Z" transform="translate(-62.3 -93)" style="fill:#eacdb0"/></g><polygon points="524.09 584.95 520.27 590.59 529.62 603.65 540.28 606.58 545.07 601.71 533.51 585.77 524.09 584.95" style="fill:#262d3a"/><polygon points="618.87 515.43 613.67 460.94 611.16 425.54 602.73 396.62 557.21 389.56 500.93 399.2 498.22 410.14 509.05 511.36 563.34 515.43 562.6 452.43 570.98 491.48 570.62 515.43 618.87 515.43" style="fill:#3b455a"/><path d="M575.17,383.17q-0.11,2.76-.16,5.51c-0.66,37.37,1.4,75.22,1.64,112.91a418.32,418.32,0,0,1,58.34-5c4.52-.07,25.08,3.11,27.94.41,3.88-3.66-.39-3-0.1-7.75,0.37-6.18-2.6-11.23-1.48-18.55,1.32-8.6,3.94-17.11,5.45-25.7a375.32,375.32,0,0,0,5.44-52.19c0.52-15.52,0-31.61-6.71-45.63-16.46-34.57-69.51-33.95-84.07,2.15C577.15,360,575.65,371.61,575.17,383.17Z" transform="translate(-62.3 -93)" style="fill:#fff"/><path d="M681.06,309.21c6.52-6.61,9.94-14.19,13.54-23.81,2.68-7.16,5.09-14.44,7.46-21.7a79.61,79.61,0,0,0,3.67-13.95c0.59-4.13,3.62-9.58.39-13.34a3.12,3.12,0,0,1,4.73-.51,2,2,0,0,0,.65.57,1.27,1.27,0,0,0,1.3-.49c1-1.06,1.28-2.56,1.75-3.92,0.76-2.2,2-5.76,3.95-7.17a15.32,15.32,0,0,1,5.3-2.16,1.21,1.21,0,0,1,1.67.58,71.19,71.19,0,0,1,4.62,7c-2.71,1.74-3.51,4.74-5.26,7.29-2.29,3.35-4.9,5.91-5.72,10.08-1.28,6.48-2.06,13.06-3.43,19.54-2.68,12.66-6.13,25.13-9.51,37.62-2.26,8.27-4.57,16.73-9,24.15s-9.76,11.35-16.88,16a14.46,14.46,0,0,1-5.26,2.5c-2.92.5-5.9-.86-8.13-2.82a16.65,16.65,0,0,1-2.47-21.34c2.43-3.44,6.09-5.77,9.54-8.17A49.77,49.77,0,0,0,681.06,309.21Z" transform="translate(-62.3 -93)" style="fill:#eacdb0"/><path d="M635,334.67l-14.41,26.26,2.26,79.58,1,36.68c0.12,4.24.23,8.49,0.36,12.74,0.06,1.91-.47,5.11.62,6.67,2.36,3.38,11,2.32,14.74,2.62,5.87,0.46,11.82.94,17.34,3,3.68,1.35,7.17,3.38,11,3.92a3.28,3.28,0,0,0,2.53-.41,3.68,3.68,0,0,0,1-2.7c1.35-18.21,1.38-37,2.39-55.39,0.83-15.06,2.93-31,1.63-46.06,0-.25,0-0.5-0.09-0.75-1.34-7.26,0-31.22,0-31.22,0.06-1,3.5-3.62,4.17-4.31l10.28-10.62c6.84-7.06,20-15.79,14.74-27.22A14.57,14.57,0,0,0,702,323.7c-7.75-8.3-17.65-13-23.2-23.17-9.71,4.79-17.62,14.25-27.95,18.19a27.85,27.85,0,0,1-16.68,1.37c-3.31-.81-10.43-3.39-8.64,3.16C626.54,327,632.51,331.66,635,334.67Z" transform="translate(-62.3 -93)" style="fill:#3b8ecc"/><path d="M603.69,337.14L618.1,363.4c-0.3,0-1.83,64.37-2,68.71l-1.41,49.57c-0.13,4.59.49,10-.41,14.49-1.25,6.3-7.89,5.06-13.54,5.57-12.37,1.11-25.39,3.23-37.79,2.6-3.58-.18,1.13-74.83,1.12-81.8,0-25.06-5.19-52.85,7.53-75.58,3.7-6.61,10.23-17.21,17.44-20.47,6.71-3,16.33-3.56,23.62-5.26l0.38,4.72Z" transform="translate(-62.3 -93)" style="fill:#3b8ecc"/><path d="M635,273.54a29.07,29.07,0,0,1,3.56,13.13c0.05,1.22.14,2.62,1.12,3.34s0.13,2.45.93,1.43,3.52-4.6,3.64-5.9a48,48,0,0,0,0-9.14c-0.26-2.64-.8-5.4-2.53-7.42a14.9,14.9,0,0,0-3.74-2.85,19.12,19.12,0,0,0-6.21-2.79c-3.87-.72-6.24.67-2.83,3.36A23.6,23.6,0,0,1,635,273.54Z" transform="translate(-62.3 -93)" style="fill:#3b455a"/><path d="M610.8,325.41c0,1.87-.36,3.81,1.29,5.26a5.66,5.66,0,0,0,2.91,1.14,18.06,18.06,0,0,0,8.1-.58,7.27,7.27,0,0,0,3-1.56,3.7,3.7,0,0,0,1.05-3c0.05-1.41.34-2.84,0.52-4.28,0.4-3.13.59-6.28,0.68-9.43,4.63-.8,10.09-2.29,11.67-7.15a15.92,15.92,0,0,0,.53-4.82l0.15-20.18a19.48,19.48,0,0,0-.77-6.88c-1.4-3.79-4.95-6-8.43-7.47-8.89-3.63-19.25-3.48-27.45,1.68a15,15,0,0,0-5.5,5.53c-1.94,3.69-1.7,8.26-1.39,12.52L597.94,298c0.32,4.53,1,9.74,4.51,12.13,1.87,1.27,4.28,1.5,5.89,3.14,2.81,2.87,1.47,7.15,2.3,10.62A6.83,6.83,0,0,1,610.8,325.41Z" transform="translate(-62.3 -93)" style="fill:#eacdb0"/><path d="M642.14,298.32c-0.08-1.25-.62-4.9-2.5-2.6A3.76,3.76,0,0,0,639,298a8.47,8.47,0,0,1-.25,2.38c-0.58,1.73-2.49,2.51-4.2,2.48a4.09,4.09,0,0,1-2-.46A6.13,6.13,0,0,1,631.1,301l-3.28-3.76c-1.88-2.16-5.61-1.22-8.14-.89a16.23,16.23,0,0,0-8.22,3.18l-0.71.6a8.74,8.74,0,0,1-1.82,1.31c-2.25,1.1-5,0-6.63-2.1-0.72-.94-1.4-2.15-2.52-2.31a2.31,2.31,0,0,0-2.19,1.33,6.6,6.6,0,0,0-.63,2.76,20.28,20.28,0,0,0,1.76,10.14c3.27,6.68,9.58,7.5,15.92,7.35l7.52-.18c4.59-.11,9.43-0.3,13.29-3,3.41-2.35,5.43-6.35,6.26-10.54A26,26,0,0,0,642.14,298.32Zm-16.78,9.47a8.78,8.78,0,0,1-7.77.9c-1.14-.34-0.66-2.26.49-1.92a7.06,7.06,0,0,0,6.35-.7C625.44,305.4,626.37,307.12,625.37,307.8Z" transform="translate(-62.3 -93)" style="fill:#3b455a"/><path d="M643.1,261.88a35.78,35.78,0,0,0,1-5,9.84,9.84,0,0,1-4.86.42v-2.9c0-.8-10.89-1.37-11.77-1.44-8.28-.68-15.85-1.32-23.33,3.12-6.39,3.79-10.49,9.46-11.47,16.84a34.47,34.47,0,0,0,5.44,22.1c0-1.88-1.1-6.3-.66-8.08a15.91,15.91,0,0,1,1.74-5.1,21,21,0,0,1,7.38-7.76,40.88,40.88,0,0,1,16.13-5.43c5.16-.72,11.45-1.38,16.55,0,2.45,0.66,2.86,1.27,4.34-1.2a42.07,42.07,0,0,0,2.13-5.53Z" transform="translate(-62.3 -93)" style="fill:#3b455a"/><path d="M515.52,155.11l3.1,26.23a8.08,8.08,0,0,1-7.48,8.88h0a8.55,8.55,0,0,1-9.39-7.28l-3.1-26.23a8.08,8.08,0,0,1,7.48-8.88h0A8.55,8.55,0,0,1,515.52,155.11Z" transform="translate(-62.3 -93)" style="fill:#91979b"/><path d="M518.66,173q-9.83,4.07-19.57,8.34a1.54,1.54,0,0,0,1.18,2.84q9.74-4.26,19.57-8.34A1.54,1.54,0,0,0,518.66,173Z" transform="translate(-62.3 -93)" style="fill:#445c6e"/><path d="M517.54,163.45q-9.83,4.07-19.57,8.34a1.54,1.54,0,0,0,1.18,2.84q9.74-4.26,19.57-8.34A1.54,1.54,0,0,0,517.54,163.45Z" transform="translate(-62.3 -93)" style="fill:#445c6e"/><path d="M515.57,155.23q-9.83,4.07-19.57,8.34a1.54,1.54,0,0,0,1.18,2.84q9.74-4.26,19.57-8.34A1.54,1.54,0,0,0,515.57,155.23Z" transform="translate(-62.3 -93)" style="fill:#445c6e"/><path d="M510.52,148.86q-5.8,1.63-11.56,3.42c-2.83.88-7.45,1.48-9.44,4s-1.39,6.7-1.4,9.58a89.19,89.19,0,0,0,.74,11.93,94.1,94.1,0,0,0,2,10.52c0.67,2.71,1.46,5.36,4.43,6.13,6.46,1.66,14.51-2.45,20.24-5,3.41-1.54,1.37-7.06-2.07-5.51-4.77,2.15-9.51,4.22-14.74,4.79-2,.21-1.77.07-2.28-1.88-0.38-1.46-.7-2.95-1-4.43q-0.75-3.91-1.15-7.88t-0.44-8A32.42,32.42,0,0,1,494,162c0.27-2,.38-1.81,1.94-2.59,2.3-1.15,5.22-1.68,7.67-2.43q4.49-1.37,9-2.63C516.2,153.36,514.11,147.85,510.52,148.86Z" transform="translate(-62.3 -93)" style="fill:#afbcc6"/><path d="M524.8,146.61c-2.91.42-5.69,1.22-8.6,1.61l-1.37.15c-3.88.48-3.56,6.29,0.43,6q1.55-.12,3.07-0.32c2.46-.13,4.86.26,5.95,2.77,1.43,3.3,1.77,7.37,2,10.91a46.55,46.55,0,0,1-.63,11.17c-0.39,2.18-.09,2.49-2.23,3.12-1.91.57-3.82,1.11-5.73,1.67a2.7,2.7,0,0,0-1.79,3.77,2.66,2.66,0,0,0,2.37,3c5.27,0.84,12,1,14.77-4.39,1.44-2.78.8-6.33,0.7-9.32L533.37,166c-0.16-5.06,1.17-13.07-2.46-17.31A6.42,6.42,0,0,0,524.8,146.61Z" transform="translate(-62.3 -93)" style="fill:#afbcc6"/><path d="M481.28,185.36c-7.85,2.5-15.75,4.36-23.82,6.11a156,156,0,0,1-16.16,3.05c-5.43.59-10.87,1-16.27,1.8-4,.57-17.18,1.31-17.3,6.75-0.07,3.29,4.37,5.33,7,6.52,3.84,1.76,7.83,3.52,11.75,5a153.74,153.74,0,0,0,36.66,9c9.92,1.18,20.08,1.37,29.78-.65q1.67-.35,3.33-0.79a2.52,2.52,0,0,0,1.26-.61,2.36,2.36,0,0,0,.3-1.94,260,260,0,0,0-6.59-32.32,6.29,6.29,0,0,0-2-3.67C487.29,182.3,483.19,184.75,481.28,185.36Z" transform="translate(-62.3 -93)" style="fill:#afbcc6"/><path d="M524,147.81a2.61,2.61,0,0,1,3.33,2.26l3.37,30.4a2.78,2.78,0,0,1-2,3L515.84,187l3.32,28.85h0c0.1-.5,3.78-2.13,4.81-3.18a24.88,24.88,0,0,1,6-4.32c14.92-8.31,31.31-16,49.21-12.48,28.78,5.68,57.45,12.06,86.09,18.37,29.06,6.4,58,13.09,86.88,20.41l1.73,0.44c14.27,3.63,28.49,7.41,42.73,11.15q11.1,2.91,22.22,5.77c8,2,13.85,5.23,20.79-.74a43.73,43.73,0,0,0,13-21.14,39.12,39.12,0,0,0,0-19.25c-1.68-6.89-3-15.81-11.69-17-3.83-.52-7.61-1-11.4-1.82-57.16-9.49-115-18.52-172.14-29.48l-12.15-2.32c-15-2.83-40.35-8.55-55.24-11.85-29-6.43-37.15-17-58.74-30.68-8.72-5.54-17.21-11.42-25.53-17.5l5.89,51.22Z" transform="translate(-62.3 -93)" style="fill:#ccd2d9"/><path d="M458,95.21c-17.58,4.09-48,40.41-56.4,49.16s2.26,13.7,2.26,13.7c2-.54,4-1.06,6-1.58q8.17-2.09,16.39-4,6-1.37,12-2.66c2-.43,4-0.88,6-1.28,1.61-.33,3.31-0.19,5-0.39,1.85-.22,3.69-0.44,5.56-0.51a35.3,35.3,0,0,1,11,1.12c1.2,0.36,3.44,1.69,3.59,3.13l7.78,79.17a1.46,1.46,0,0,0,2,1.16l39.88-16.37s-2.48-.56-4.37-5.54a73.49,73.49,0,0,1-3-10.49c-0.8-3.7-1.4-7.43-2-11.16l-10.67,3a5.38,5.38,0,0,1-6.78-4.89l-2-26.61a2.78,2.78,0,0,1,1.95-2.88l12.33-3.67a550.4,550.4,0,0,1-3.92-57.11q2.55,1.9,5.11,3.77l-0.27-2.31C495.63,93.11,475.57,91.12,458,95.21Z" transform="translate(-62.3 -93)" style="fill:#ccd2d9"/><path d="M509.86,188.67c0.57,3.73,1.17,7.46,2,11.16a73.49,73.49,0,0,0,3,10.49c1.89,5,4.37,5.54,4.37,5.54L515.84,187Z" transform="translate(-62.3 -93)" style="fill:#fff"/><path d="M504.67,153.57l7.09-2.11-5.89-51.22q-2.57-1.88-5.11-3.77A550.4,550.4,0,0,0,504.67,153.57Z" transform="translate(-62.3 -93)" style="fill:#fff"/><path d="M661.6,215.65l1.57,0.35c30.95,6.82,61.83,13.95,92.54,21.74l1.84,0.47c15.2,3.87,30.35,7.89,45.51,11.87q11.83,3.1,23.67,6.14c8.49,2.17,14.76,5.57,22.14-.79a46.58,46.58,0,0,0,13.88-22.52,41.67,41.67,0,0,0,0-20.51c-1.79-7.34-3.17-16.84-12.46-18.11-4.08-.56-8.11-1.12-12.14-1.94-54.26-9-111.53-18.15-165.89-28.18Z" transform="translate(-62.3 -93)" style="fill:#ebb044"/><path d="M834.9,212.83c6.9,1.4,11.38,7.87,10,14.44s-8.07,10.76-15,9.36-11.38-7.87-10-14.44S828,211.43,834.9,212.83Z" transform="translate(-62.3 -93)" style="fill:#fff"/><path d="M656.06,196.92l3.27-15.68a5.53,5.53,0,0,0-4.47-6.45c-19.71-4-85.17-17.48-90.31-20.6-4.55-2.76-9.21-5.34-13.85-7.94-2.65-1.49-12.73-9.19-15.55-8.79-6.33.9-1.68,17-1.23,21,0.91,8,1.92,16,3,24a4.05,4.05,0,0,0,5.46,3.12c5.37-2,14.43-4.67,22.7-3.49,10.66,1.53,66,14.64,84.12,18.95A5.6,5.6,0,0,0,656.06,196.92Z" transform="translate(-62.3 -93)" style="fill:#fff;opacity:0.08"/><path d="M845.53,227.8c-1.46,7-8.6,11.45-15.92,10s-12.1-8.38-10.64-15.37,8.6-11.45,15.92-10S847,220.82,845.53,227.8Zm-25.16-5.12c-1.3,6.24,3,12.41,9.52,13.74s12.94-2.66,14.24-8.91-3-12.41-9.52-13.74S821.67,216.43,820.36,222.68Z" transform="translate(-62.3 -93)" style="fill:#445c6e"/><polygon points="331.1 373.23 326.06 426.43 324.63 473.03 345.28 595.97 359.36 597.07 377.24 482.19 405.49 368.13 331.1 373.23" style="fill:#64b2dc"/><polygon points="359.41 595.39 358.81 603 343 609.42 335.98 601.22 344.19 594.2 359.41 595.39" style="fill:#3b455a"/><polygon points="421.34 370.83 419.18 473.03 409.35 593.72 395.27 594.81 377.39 479.94 349.13 365.87 421.34 370.83" style="fill:#64b2dc"/><polygon points="395.22 593.13 395.81 600.74 411.63 607.17 418.64 598.97 410.44 591.95 395.22 593.13" style="fill:#3b455a"/><path d="M497.51,484.85c0.18,8.89-.08,20.87-3.29,21.31a2.78,2.78,0,0,1-1.7-.54c-5.55-3.22-9.47-7.76-14.94-10.88-5.73-3.26-12.29-5-18.71-6.21a170.11,170.11,0,0,0-29.23-3.21,217,217,0,0,0-23.1,1.23c-6.38.57-12.31,2.58-18.81,2.1a40,40,0,0,1-18.91-6.39,1.16,1.16,0,0,1-.52-0.54,1.29,1.29,0,0,1,.09-0.83c1.36-4,2.34-7.9,4.81-11.19,2.76-3.67,4.72-8.33,6.71-12.51a207.84,207.84,0,0,0,11-27.11c4.39-12.61,9.4-24.89,13.65-37.54,2.94-8.77,5.62-17.69,9.61-26,3.12-6.51,8.69-16,15.4-18.89a19.71,19.71,0,0,1,7.22-1.13,31.46,31.46,0,0,1,3.15,0c-0.59,1.64-1.19,3.46-.59,5.1a5.33,5.33,0,0,0,3.28,2.92,5.2,5.2,0,0,0,1.68.36,5.05,5.05,0,0,0,1.41-.2,8,8,0,0,0,1.77-.71c2.47-1.36,4-3.89,5.27-6.42a4.37,4.37,0,0,1,.59-1c0.6-.69,1.55-0.55,2.38-0.58l3.31-.1c2.7-.08,5.52-0.14,8,1,3.69,1.78,5.78,5.91,7.61,9.76a198,198,0,0,1,16.33,55.13c1.53,10,2.94,20.09,4,30.18,1.23,11.26,2.07,22.57,2.25,33.9C497.23,477.1,497.42,480.62,497.51,484.85Z" transform="translate(-62.3 -93)" style="fill:#ebb044"/><path d="M438.81,351.86a8,8,0,0,0,.25,3,10,10,0,0,0,5.76,6.35,4.7,4.7,0,0,0,4.5-.31,5.73,5.73,0,0,0,1.39-1.83c3.29-6,3.85-11.79,3.23-18.52,0,0.42,7.07-3.28,7.7-4.13,1.79-2.42,2-6.49,2.75-9.37,1.59-6.14,3.08-13-.16-18.5-3.36-5.64-10.63-7.57-17.19-7.74-8.24-.22-17.44,2.19-21.68,9.26-3.83,6.39,1,15.81,2.38,22.56,0.68,3.33,1.72,7.13,4.81,8.54,1.64,0.75,3.64.67,5.11,1.72C440.37,344.8,439,348.5,438.81,351.86Z" transform="translate(-62.3 -93)" style="fill:#eac1a4"/><path d="M434.92,308.28c10.71-4.31,25.06,4.57,34.55-3.22,8.74-7.18,12.13-21.57,9.49-32.15-9.56,4.42-20.72,1.94-31.22,2.65-8.2.55-16.43,3.25-22.64,8.63-13.81,12-10.1,27.68-1.52,41.1,2.33-1.32,2.1-7.15,3.5-9.75A15.77,15.77,0,0,1,434.92,308.28Z" transform="translate(-62.3 -93)" style="fill:#3b455a"/><path d="M464.76,313.9a20,20,0,0,1-.73,14.39,52.49,52.49,0,0,0,9.27-14.72,12.16,12.16,0,0,0,1.24-5.69c-0.3-3.25-2.81-5.81-5.24-8-2.21-2-4.55-4-7.37-4.89s-6.25-.61-8.3,1.54c-3.72,3.9-.18,6.31,2.64,8.07C460.13,307,463.18,309.43,464.76,313.9Z" transform="translate(-62.3 -93)" style="fill:#3b455a"/><path d="M494.75,543.85a3.88,3.88,0,0,1,3.69-4l19.47-.29a3.88,3.88,0,0,1,3.81,3.92l0,2.77L604.37,545l32.81-35.43a0.41,0.41,0,0,1,.33-0.14l-0.35-23.71c-0.11-7.63-5.23-13.8-11.36-13.71l-67,1,0.14,9.25c0.05,3.51-2.2,6.39-5,6.44s-5.16-2.77-5.21-6.29l-0.14-9.25L492.8,474l0.14,9.88c0.11,3.51-2.1,6.45-4.92,6.55h-0.1c-2.78,0-5.1-2.69-5.2-6.16l-0.15-10.13-38.14.56a10.29,10.29,0,0,0-8.09,4.54L414.84,502l-4,4.2a16.07,16.07,0,0,0-2.13,8.36l0.49,33.34,85.57-1.26Z" transform="translate(-62.3 -93)" style="fill:#d34e4e"/><path d="M604.56,546.17l-82.78,1.21,0.06,4.32a3.88,3.88,0,0,1-3.69,4l-19.47.29a3.88,3.88,0,0,1-3.81-3.92l-0.06-4.32L409.24,549l1,70.73c0.11,7.63,5.23,13.8,11.36,13.71L603,630.82a9.68,9.68,0,0,0,6.25-2.52l1.46-1.52,23.13-24.14a12.76,12.76,0,0,0,1.52-1.58l0.06-.08a15.65,15.65,0,0,0,3.28-10l-1.18-80.22L604.86,546A0.42,0.42,0,0,1,604.56,546.17Z" transform="translate(-62.3 -93)" style="fill:#c13a3a"/><path d="M637.84,509.65a0.44,0.44,0,0,0-.33-0.2l0,1.3,0.26-.29A0.68,0.68,0,0,0,637.84,509.65Z" transform="translate(-62.3 -93)" style="fill:#6d2727"/><path d="M408.77,548.47a0.53,0.53,0,0,0,.47.57l0-1.16A0.53,0.53,0,0,0,408.77,548.47Z" transform="translate(-62.3 -93)" style="fill:#6d2727"/><path d="M637.19,509.59L604.37,545l-82.61,1.21,0,1.16,82.78-1.21a0.42,0.42,0,0,0,.3-0.14l32.67-35.28,0-1.3A0.41,0.41,0,0,0,637.19,509.59Z" transform="translate(-62.3 -93)" style="fill:#6d2727"/><rect x="409.23" y="547.25" width="85.58" height="1.16" transform="translate(-70.29 -86.31) rotate(-0.84)" style="fill:#6d2727"/><path d="M492.64,463c-0.06-4.14,2.6-7.56,5.94-7.61l43.71-.64c3.33,0,6.1,3.28,6.16,7.43l0.16,11,10.23-.15-0.16-11c-0.16-11.16-7.6-20.13-16.57-20l-43.71.64c-9,.13-16.14,9.32-16,20.48l0.16,11L492.8,474Z" transform="translate(-62.3 -93)" style="fill:#211d1d"/><path d="M548.74,482.42c0.05,3.51,2.38,6.33,5.21,6.29s5.07-2.92,5-6.44L558.83,473l-10.23.15Z" transform="translate(-62.3 -93)" style="fill:#211d1d"/><path d="M487.92,490.42H488c2.82-.11,5-3,4.92-6.55L492.8,474l-10.23.15,0.15,10.13C482.82,487.73,485.14,490.46,487.92,490.42Z" transform="translate(-62.3 -93)" style="fill:#211d1d"/><path d="M494.87,552.1a3.88,3.88,0,0,0,3.81,3.92l19.47-.29a3.88,3.88,0,0,0,3.69-4l-0.06-4.32-27,.4Z" transform="translate(-62.3 -93)" style="fill:#211d1d"/><path d="M517.91,539.54l-19.47.29a3.88,3.88,0,0,0-3.69,4l0,2.77,27-.4,0-2.77A3.88,3.88,0,0,0,517.91,539.54Z" transform="translate(-62.3 -93)" style="fill:#211d1d"/><rect x="494.8" y="546.43" width="26.98" height="1.16" transform="translate(-70.27 -85.49) rotate(-0.84)" style="fill:#211d1d"/><path d="M778,380.71a2.73,2.73,0,0,1,.69-0.34c2.26-.61,3.81.43,6.14,0.47,1,0,2.53-2.21,3.69-.36,0.43,0.68,1.23,2.5,2.13,4,1.3,2.13,4.24,4,6.85,5.13,10.27,4.27,21.41,5.63,32.48,6.63a4,4,0,0,0,1.88-.13c1-.43,1.53-1.62,1.92-2.68a85,85,0,0,1,6.81-14.21c2.41-4,5.25-7.94,9.16-10.54s9.09-3.67,13.38-1.75a11.14,11.14,0,0,1,6.29,8c1.63,8.56-9,15.61-14.32,20.83a151.31,151.31,0,0,1-16.13,13.74,6.51,6.51,0,0,1-2.28,1.24,6.61,6.61,0,0,1-2.76-.14,330.19,330.19,0,0,1-34.72-9.19c-3.15-1-5.39-3.5-8.32-4.38-1.87-.56-3.74.34-5.61,0.2a18.16,18.16,0,0,1-5.94-1.61c-3.3-1.61-4-5.34-4.9-8.54a3.94,3.94,0,0,1-.22-2.1,5.7,5.7,0,0,1,2.08-2.86A11.06,11.06,0,0,1,778,380.71Z" transform="translate(-62.3 -93)" style="fill:#eacdb0"/><path d="M855.54,392.33l-18.7-9.87c0.4,0.21,13.19-29.2,14-30.93,3.14-6.58,6.43-13.38,12-18.05,12-10,30.09-.42,27.14,15.41-3.2,17.19-13.24,34.6-26.15,46.33a2.21,2.21,0,0,1-1,.6,2.25,2.25,0,0,1-1.48-.38Z" transform="translate(-62.3 -93)" style="fill:#7fc5a3"/><path d="M832.62,684.7a72.61,72.61,0,0,1-8.38-1c-2.3-25.61-4.52-52.33-4.25-78,7.12,0.57,18.17,1.14,25.28,1.71-4.49,13.58,1.58-6.12,0,8.16C845,617.85,833,684.7,832.62,684.7Z" transform="translate(-62.3 -93)" style="fill:#eacdb0"/><path d="M823.21,678.72a4.23,4.23,0,0,0-3.91,1.3,10,10,0,0,1-1.9,1.74,6.61,6.61,0,0,1-2.58.5c-5.11.32-16.92-.25-10.37,7.87,6,7.37,21,5,29.73,3.3a3,3,0,0,0,1.59-.57,3.43,3.43,0,0,0,.83-1.58c0.89-3.36,2.11-7.54-2.44-9.1-1.94-.66-3.67.46-5.73-0.26C826.76,681.33,825,679.06,823.21,678.72Z" transform="translate(-62.3 -93)" style="fill:#262d3a"/><path d="M813.28,621l39.7-.77Q869,543.74,881.26,466.55c0.63-4,1.25-8.14.1-12-2.17-7.32-10-11.5-17.52-12.9-11.67-2.18-33.1.86-39.08,13-6.32,12.82-5.26,35.71-6.79,49.87A861,861,0,0,0,813.28,621Z" transform="translate(-62.3 -93)" style="fill:#3b455a"/><path d="M908,683.58a78.37,78.37,0,0,0,8.71-.74c1.32-25.26,5-51.74,4-77.12-6.49.35-19.05,0.69-25.54,1,4.52,13.56,5.56,27.77,7.45,41.94C902.85,650.94,907.6,683.56,908,683.58Z" transform="translate(-62.3 -93)" style="fill:#eacdb0"/><path d="M917.47,677.94c1.6-.29,2.55.43,3.61,1.4a10.41,10.41,0,0,0,1.79,1.77,5.88,5.88,0,0,0,2.37.57c4.68,0.47,15.47.28,9.72,8.11-5.22,7.11-19.08,4.28-27.08,2.35a2.75,2.75,0,0,1-1.47-.61,3.77,3.77,0,0,1-.81-1.59c-0.91-3.35-2.16-7.52,2-8.93,1.75-.6,3.37.56,5.23-0.08C914.3,680.41,915.86,678.22,917.47,677.94Z" transform="translate(-62.3 -93)" style="fill:#262d3a"/><path d="M929.12,621l-39.7-.77q-16.06-76.45-28.27-153.63c-0.63-4-1.25-8.14-.1-12,2.17-7.32,10-11.5,17.52-12.9,11.67-2.18,33.1.86,39.08,13,6.32,12.82,5.26,35.71,6.79,49.87A861,861,0,0,1,929.12,621Z" transform="translate(-62.3 -93)" style="fill:#3b455a"/><path d="M895.19,341.5A94.61,94.61,0,0,1,918.53,378c8.48,23.79,8.64,49.2,8.72,74.09q0,12.43.08,24.86c0,8.15-.7,9.91-9.55,8.83-16.42-2-33.48-5.38-48.36-12.67-7.08-3.47-13.69-7.86-21.12-10.59-10.8-4-21.86-2.18-32.54-4.76,2.71-8.19,6.76-15.67,8.64-24.26a178.1,178.1,0,0,0,3.37-26.17c1-15.35,2.95-30.6,4.1-45.9,0.82-11-.62-19.92,11-27.1,6.34-3.91,17.88-10.6,26.82-8.79C879.21,327.46,889.26,335.85,895.19,341.5Z" transform="translate(-62.3 -93)" style="fill:#d34e4e"/><path d="M856.91,306.59c2,4.38,5.28,8,8,12s3.54,7.42,4.23,11.94c0.5,3.26,1.67,5.82,5.6,6.37,7.42,1.05,5.29-5.07,7-9.53,1.93-5.09,6-9.12,8.9-13.67,8.29-13.14,5.92-39.11-11.31-44.65C860.41,263,850.83,293.3,856.91,306.59Z" transform="translate(-62.3 -93)" style="fill:#eacdb0"/><path d="M886.94,293.88c2.14,0.09,4.49.26,6.08,1.69s1.41,4.57-.68,4.91c-1.9.31-4.36-1.67-5.52-.23-0.68.85-.08,2.08,0.43,3.07a18,18,0,0,1,1.64,12.23c0.78,0.72,2,0,2.69-.78a39.37,39.37,0,0,0,7.81-12.83,7.87,7.87,0,0,0,2.87,2.78c-0.71-1.77-.26-3.71.18-5.52,1.61-6.65,2.71-14.43-1.94-19.87a17.27,17.27,0,0,0-10.06-5.28,50.49,50.49,0,0,0-11.5-.36c-1.64.07-3.66,0.43-4,1.94,3.59,1.44,7.31,4.25,9.11,7.65C884.56,284.33,886.72,293.87,886.94,293.88Z" transform="translate(-62.3 -93)" style="fill:#282828"/><path d="M879.35,277.91l0.39,0.29c1.63,1.24,3.15,2.75,5.12,3.3,2.84,0.79,5.89-.58,8.69.39,3.13,1.08,5.18,4.82,7.46,7,0.74,0.71,2.73,3.09,3.87,2.81,1.61-.4,1.91-3.88,1.67-5.1-0.38-1.93-1.73-3.58-1.94-5.53s0.79-3.88,1.51-5.75,1.13-4.16-.1-5.74c-0.63-.8-1.65-1.38-1.86-2.38a7.56,7.56,0,0,1,.14-1.94c0.18-3.38-4.84-5.52-7.45-6-3.29-.65-6.58.81-9.87,1.45a20.43,20.43,0,0,1-8.25-.1c-2.42-.53-4.79-1.52-7.27-1.49-3.66,0-7,2.32-9.17,5.29-3,4.21-5,11.4-3.91,16.94-0.17-.86,2.73-4,3.32-4.64a7.83,7.83,0,0,1,4.69-3C870.72,273.21,875.86,275.37,879.35,277.91Z" transform="translate(-62.3 -93)" style="fill:#3b455a"/><path d="M723.35,311.48h19a0,0,0,0,1,0,0v52.11a0,0,0,0,1,0,0h-19a2.75,2.75,0,0,1-2.75-2.75V314.23A2.75,2.75,0,0,1,723.35,311.48Z" transform="translate(-52.87 -112.73) rotate(1.56)" style="fill:#b5b8c4"/><path d="M815.54,318.34l-42.74-1.16-1.17,42.92,43.92,1.19c26.66-20.75,53.87-1.72,53.87-1.72l3.6-5C858.4,326.89,815.54,318.34,815.54,318.34Z" transform="translate(-62.3 -93)" style="fill:#b5b8c4"/><path d="M769.27,319c-17.09,8.63-26.19-7.2-26.19-7.2l-0.62,22.66,0,0.65-0.15,5.47,0,0.65-0.62,22.66s9.95-15.31,26.54-5.77l3.42,2,0.51-18.73,0.15-5.47,0.51-18.73Z" transform="translate(-62.3 -93)" style="fill:#8b8d96"/><rect x="778.23" y="360.67" width="27.15" height="125.65" transform="translate(-50.51 -114.34) rotate(1.56)" style="fill:#8b8d96"/><path d="M786.14,632.08h0a20,20,0,0,1-19.45-20.53l3.23-118.9,6.82-14.59,27.14,0.74,6,14.94-3.23,118.9A20,20,0,0,1,786.14,632.08Z" transform="translate(-62.3 -93)" style="fill:#64b2dc"/><circle cx="786.7" cy="611.4" r="7.72" transform="translate(91.87 1288.21) rotate(-88.44)" style="fill:#ffbc57"/><path d="M768.79,621.45c3.62,6.24,9.62,10.41,16.53,10.6,11.47,0.31,21-6.57,21.48-24.07l2.65-97.67S802.95,619.83,768.79,621.45Z" transform="translate(-62.3 -93)" style="fill:#272525;opacity:0.1"/><polygon points="717.64 267.33 744.5 278.52 744.78 268.06 717.64 267.33" style="fill:#272525;opacity:0.1"/><path d="M783.37,404.07a2.73,2.73,0,0,1,.73-0.26c2.32-.34,3.73.87,6,1.17,1,0.14,2.77-1.91,3.7.06,0.35,0.72.94,2.62,1.66,4.17,1.05,2.26,3.75,4.5,6.23,5.88a79,79,0,0,0,10.42,5.06A134,134,0,0,0,836,426.53a36.21,36.21,0,0,1,25.95-26.89,8.39,8.39,0,0,1,4.06-.26,7.23,7.23,0,0,1,3,1.74c9.14,8.17,1,16.49-5.26,23.46A119.87,119.87,0,0,1,851,436.83c-6.33,5.22-13.38,4.75-21,2.49-8.13-2.39-16.32-5-23.79-9-3.63-2-6.62-4.51-9.93-6.92s-4.15-.8-7.54-2.15c-1.9-.76-4-1.17-5.7-2.27-3.1-2-3.35-5.76-3.9-9a3.94,3.94,0,0,1,0-2.11,5.7,5.7,0,0,1,2.39-2.61A11,11,0,0,1,783.37,404.07Z" transform="translate(-62.3 -93)" style="fill:#eacdb0"/><path d="M859.11,424.43L841.65,412.5c0.37,0.26,16.43-27.51,17.44-29.13,3.86-6.18,7.91-12.56,14-16.57,13-8.55,29.94,3,25.21,18.4-5.14,16.71-17.09,32.87-31.24,43.06a2.21,2.21,0,0,1-1,.49,2.25,2.25,0,0,1-1.43-.55Z" transform="translate(-62.3 -93)" style="fill:#d34e4e"/><path d="M556.28,316.82A12.86,12.86,0,0,0,558.51,302l-13.62-26.93c-2.55-5-7-10.89-7.68-16.37-1.23-9.69,1-21.1,1.86-30.79,0.46-4.92,0-11.76,2.08-16.29,0.38-.85,6.14-7.35,6-7.55l-1.21-1.82-1.8,1.21-1.5-.3,4.1-5-5.92-4.34L532.9,197c-0.42,5.33.52,10.87-1.17,16-0.72,2.17-1.78,4.21-2.68,6.32-1.54,3.62-2.59,7.41-3.78,11.15s-3,7-4.12,10.59c-2.43,8-4.81,16-7.21,23.94l20.88,47.85A13.16,13.16,0,0,0,556.28,316.82Z" transform="translate(-62.3 -93)" style="fill:#eacdb0"/><path d="M590.92,323.65a67.16,67.16,0,0,1-21.66-20.37l-0.43-.92c-0.53-1.18-6.42-14-6.59-13.95l-0.44.2-1.28.65h-0.18c-3,0-8,3.6-10.77,4.84L527.42,304a3.26,3.26,0,0,0-1.41,1,2.91,2.91,0,0,0-.32,2l-2,1a41.78,41.78,0,0,1,2.62,4.21c0.84,5.63,2.26,11.19,5.7,15.68,0.2,0.27.42,0.52,0.64,0.77,1.79,6,3.45,12,6,17.62,6.84,15.13,19.82,26.88,26.35,42.14,5.3-1.55,9-6.3,11.79-11.05,5.54-9.33,9.22-19.63,12.86-29.85l5.56-15.59a7.37,7.37,0,0,0,.6-2.81C595.71,326.54,593.13,324.94,590.92,323.65Z" transform="translate(-62.3 -93)" style="fill:#3b8ecc"/><path d="M516.86,438.69a83.89,83.89,0,0,0-.34-8.65c-4.27.64-8.52,1.33-12.76,2.11,0.21,0.76.42,1.51,0.63,2.24,1.38,4.75,4.27,11,4,15.91,0,0.93-3,9.09-2.79,9.22l1.79,1.25,1.23-1.79,1.51-.27-2,6.11,7.1,1.86,6.2-5.82c-1.56-5.11-4.48-9.92-4.79-15.32C516.56,443.27,516.8,441,516.86,438.69Z" transform="translate(-62.3 -93)" style="fill:#eac1a4"/><path d="M460.72,379.33c-1.18,2,34,24,34,24l12.55,43.52H518.8l-4.86-52.81-47-47.19Z" transform="translate(-62.3 -93)" style="fill:#ebb044"/><path d="M163,350.16a2.67,2.67,0,0,1,.75.06c2.21,0.61,3,2.25,4.94,3.44,0.87,0.53,3.23-.61,3.29,1.52,0,0.78-.2,2.72-0.17,4.39,0,2.44,1.57,5.51,3.24,7.72a77.24,77.24,0,0,0,7.31,8.65,131,131,0,0,0,18.77,15.14,35.4,35.4,0,0,1,33.85-13.77,8.2,8.2,0,0,1,3.73,1.38,7.07,7.07,0,0,1,2,2.73c4.94,10.93-5.63,15.14-14,18.89a117.2,117.2,0,0,1-16.19,5.93c-7.72,2.16-13.84-1.05-19.8-6.11-6.32-5.36-12.63-10.89-17.69-17.5-2.46-3.21-4.14-6.65-6.14-10.12s-3.39-2.36-5.89-4.91c-1.39-1.43-3.09-2.62-4.2-4.28-2-3-.72-6.47.09-9.63a3.85,3.85,0,0,1,.85-1.88,5.57,5.57,0,0,1,3.17-1.38A10.8,10.8,0,0,1,163,350.16Z" transform="translate(-62.3 -93)" style="fill:#eac1a4"/><path d="M224.64,407.53c-4.2,1.39-8.38,2.56-12.45,3.54-6.07,1.46-12.72,2.86-18.34.14A26.74,26.74,0,0,1,188,407Q175.21,395.65,163,383.7a59.43,59.43,0,0,1,11.3-13.89c1.25-1.13,2.68-2.26,4.36-2.32,2.5-.1,4.39,2.12,5.88,4.13l7.26,9.81c0.78,1.06,1.7,2.2,3,2.43a5.09,5.09,0,0,0,2.52-.41c15.38-5.39,27.11-12.87,40.5-21.94,5.9-4,12-8.1,19.08-9.26,15-2.49,25.57,14.54,15.25,26.43C260.32,392.23,242.3,401.7,224.64,407.53Z" transform="translate(-62.3 -93)" style="fill:#64b2dc"/><polygon points="232.76 592.29 232.53 599.56 217.75 606.36 210.72 598.86 218.22 591.82 233 585.02 232.76 592.29" style="fill:#3b455a"/><polygon points="262.71 373.59 261.99 395.67 229.46 490.39 233.6 589.98 219.09 592.39 189.58 470.68 191.86 434.99 207.81 362.56 262.71 373.59" style="fill:#3b455a"/><polygon points="170.76 377.12 152.3 468.11 147.05 588.97 160.26 591.49 189.31 484.59 228.1 379.55 170.76 377.12" style="fill:#3b455a"/><polygon points="160.48 589.9 159.12 597.04 143.47 601.46 137.69 592.95 146.19 587.17 160.48 589.9" style="fill:#3b455a"/><path d="M336.64,479.39c0.19,8.47-.08,19.88-3.33,20.3a3,3,0,0,1-1.73-.51c-5.63-3.07-9.61-7.4-15.15-10.36-5.81-3.11-12.46-4.76-19-5.92a183.33,183.33,0,0,0-29.66-3.06A234.21,234.21,0,0,0,244.34,481c-6.47.54-12.49,2.46-19.09,2a42.38,42.38,0,0,1-19.19-6.09,1.14,1.14,0,0,1-.52-0.51,1.16,1.16,0,0,1,.09-0.79c1.38-3.78,2.37-7.53,4.88-10.66,2.8-3.5,4.79-7.94,6.81-11.92a191.28,191.28,0,0,0,11.13-25.83c4.45-12,9.54-23.72,13.84-35.77,3-8.36,5.7-16.86,9.75-24.78,3.17-6.2,8.82-15.26,15.62-18a21.17,21.17,0,0,1,7.33-1.08l22.58-.65c2.74-.08,5.6-0.14,8.1,1,3.75,1.69,5.87,5.63,7.72,9.3A180.19,180.19,0,0,1,330,409.75c1.55,9.56,3,19.14,4.1,28.75,1.24,10.73,2.1,21.51,2.28,32.3C336.36,472,336.55,475.37,336.64,479.39Z" transform="translate(-62.3 -93)" style="fill:#64b2dc"/><path d="M286.42,388.56a61.52,61.52,0,0,0,.93,12.76l11.08,77.33-60.62-.53,2.2-29a136.74,136.74,0,0,1,2.25-18.48c2.11-9.8,6.34-19,10.54-28.16l23.28-50.65a5.22,5.22,0,0,1,5-3.73c5.78-1,12.3-1.85,18.1-1,1.45,5.28-3.9,14.47-5.89,19.39C290.39,373.67,286.94,380.77,286.42,388.56Z" transform="translate(-62.3 -93)" style="fill:#fff"/><path d="M282.69,351.8l12.57-.55a62.81,62.81,0,0,0-.12-10c0,0.4,6.74-3.13,7.33-3.93,1.71-2.31,1.91-6.18,2.62-8.93,1.51-5.85,2.93-12.43-.16-17.62-3.2-5.38-10.13-7.22-16.38-7.38-7.85-.2-16.62,2.08-20.66,8.82-3.65,6.09,1,15.06,2.27,21.5,0.65,3.17,1.64,6.79,4.58,8.13,1.57,0.71,3.46.63,4.86,1.64C282.07,345.23,281.51,349,282.69,351.8Z" transform="translate(-62.3 -93)" style="fill:#eacdb0"/><path d="M255.52,300.56l-1.4-13a11.25,11.25,0,0,1,.18-4.82c0.87-2.55,3.46-4.15,6.06-4.85s5.34-.73,8-1.31c2.81-.62,5.54-1.87,8.42-1.74,5.47,0.24,9.65,5.31,15.06,6.18,7.48,1.2,14.35-2.23,18.87,6.57,0.83,1.62,1.06,3.48,1.79,5.15,0.95,2.15,2.67,3.85,4,5.77,5.92,8.47,4,21.31-3.17,28.49-3.48,3.48-4.9,6.63-9.69,7.74,2.19-4.46-.7-22.22-6.71-24.22-1.59-.53-6.37,1.42-8.13,1.68a46.76,46.76,0,0,0-11.37,2.72,56.73,56.73,0,0,1-17.26,4.3,2.18,2.18,0,0,1-2.89-2.37Z" transform="translate(-62.3 -93)" style="fill:#3b455a"/><path d="M273.09,300.08c7.09-.36,14.2-0.73,21.36,0s14.58,2.6,21.82,4.45l9.24,2.37c0.06,0,0-7.28-.06-7.76-0.21-1.8-1-2.55-1.95-3.91s-0.84-1.55-1-3.24c-0.31-3.7-1.72-7.46-3-11-1.82-5-3.86-9.91-6.91-14.15-9.68-13.48-25.86-13-40.16-6.72-12.76,5.61-17.31,16.1-18.41,29.17a5.12,5.12,0,0,1-.39,1.86c-1.25,2.49-2.43,1.84-2.28,5.3a83.11,83.11,0,0,0,1.58,8.29,36.47,36.47,0,0,1,5.9-2.6,25.75,25.75,0,0,1,4.6-1.24A75.56,75.56,0,0,1,273.09,300.08Z" transform="translate(-62.3 -93)" style="fill:#ebb044"/><rect x="201.96" y="344" width="8.08" height="36.24" transform="translate(144.88 -147.49) rotate(29.8)" style="fill:#8b8d96"/><polygon points="139.48 252.13 134.22 261.32 132.18 264.88 126.91 274.08 131.19 282.83 139.18 268.89 141.22 265.33 149.2 251.39 139.48 252.13" style="fill:#b5b8c4"/><path d="M333.7,398.93L240.21,345.4l-20.13.27-8.61,15-3.91,6.84-8.61,15,9.66,24a36.78,36.78,0,0,0,15.06,17.73L251.11,441a11.06,11.06,0,0,1,5.16,11.37l-10.12,57.47a15,15,0,0,0,7.34,15.66l8.65,5A15,15,0,0,0,284.43,520l8.21-46.62a5.13,5.13,0,0,1,6.66-3.94c5.5,1.72,14,2,20.23-8.93l7.83-13.67,4.6-8,2-3.42,2-3.42,4.6-8A18.31,18.31,0,0,0,333.7,398.93Z" transform="translate(-62.3 -93)" style="fill:#d34e4e"/><rect x="186.63" y="348.23" width="9.41" height="11.37" transform="translate(119.19 663.12) rotate(-150.2)" style="fill:#8b8d96"/><rect x="94.69" y="316.35" width="74.01" height="7.39" transform="translate(24.63 570.22) rotate(-150.2)" style="fill:#8b8d96"/><rect x="128.63" y="285.83" width="1.97" height="72.35" transform="translate(-276.53 181.47) rotate(-60.2)" style="fill:#272525;opacity:0.1"/><rect x="187.75" y="353.04" width="2.71" height="9.3" transform="translate(-277.57 251.05) rotate(-60.2)" style="fill:#272525;opacity:0.1"/><polygon points="39.33 215.38 34.39 212.56 44.02 206.96 48.89 209.82 39.33 215.38" style="fill:#b5b8c4"/><polygon points="49.06 220.96 44.13 218.13 53.75 212.53 58.63 215.39 49.06 220.96" style="fill:#b5b8c4"/><polygon points="58.79 226.53 53.86 223.71 63.49 218.1 68.36 220.97 58.79 226.53" style="fill:#b5b8c4"/><polygon points="68.53 232.11 63.6 229.28 73.22 223.68 78.09 226.54 68.53 232.11" style="fill:#b5b8c4"/><polygon points="78.26 237.68 73.33 234.86 82.96 229.25 87.83 232.11 78.26 237.68" style="fill:#b5b8c4"/><polygon points="88 243.25 83.06 240.43 92.69 234.83 97.56 237.69 88 243.25" style="fill:#b5b8c4"/><polygon points="97.73 248.83 92.8 246 102.42 240.4 107.3 243.26 97.73 248.83" style="fill:#b5b8c4"/><rect x="168.01" y="334.47" width="20.47" height="24.46" transform="translate(133.55 -135.74) rotate(29.8)" style="fill:#b5b8c4"/><polygon points="104.31 237.2 100.75 243.41 99.37 245.81 95.82 252.02 100.98 259.23 106.37 249.82 107.75 247.41 113.14 238 104.31 237.2" style="fill:#8b8d96"/><path d="M264.6,510.62l6.28-35.54a15.33,15.33,0,0,0-7.48-16l-7.56-4.33-9.4,53.38,10.54,6A5.15,5.15,0,0,0,264.6,510.62Z" transform="translate(-62.3 -93)" style="fill:#4b4b4b"/><rect x="226.74" y="356.3" width="2.95" height="30.77" transform="translate(152.58 -157.27) rotate(29.8)" style="fill:#4b4b4b"/><rect x="232.89" y="359.83" width="2.95" height="30.77" transform="translate(155.13 -159.86) rotate(29.8)" style="fill:#4b4b4b"/><rect x="285.14" y="399.06" width="41.36" height="8.67" rx="1.84" ry="1.84" transform="translate(178.59 -191.64) rotate(29.8)" style="fill:#fff"/><path d="M322.56,423.28c0.27,1,.15,2.32-0.82,2.65a3.13,3.13,0,0,1-1.79-.23,5.28,5.28,0,0,0-5.89,2.57c-1.26,2.42-.34,5.55,1.58,7.47a13.61,13.61,0,0,0,7.33,3.33c1.68,0.3,3.59.41,4.94-.64a6.16,6.16,0,0,0,1.56-2.11c2.08-4,4-9.31,1-13.4C328.2,419.72,320.74,416.62,322.56,423.28Z" transform="translate(-62.3 -93)" style="fill:#eacdb0"/><path d="M342.09,424.21a7.8,7.8,0,0,0-1.07-1.29c-3.34-3.25-7.76-6.49-12.7-5.44a44.5,44.5,0,0,1-6.29,26,2.51,2.51,0,0,0-.54,2c0.43,1.27,4.3,2.51,5.48,2.67,5.21,0.71,10.84-1.41,13.46-5.06A17.35,17.35,0,0,0,343,436C343.7,432.25,344.31,427.57,342.09,424.21Z" transform="translate(-62.3 -93)" style="fill:#64b2dc"/><path d="M334.69,227.81h28.39a0,0,0,0,1,0,0V296A13.94,13.94,0,0,1,349.13,310h-0.49a14,14,0,0,1-14-14V227.81a0,0,0,0,1,0,0Z" transform="translate(-125.51 20.32) rotate(-16.94)" style="fill:#64b2dc"/><rect x="230.97" y="114.88" width="154.81" height="42.24" rx="17.09" ry="17.09" transform="translate(-88.55 2.82) rotate(-16.95)" style="fill:#3b8ecc"/><g style="opacity:0.1"><path d="M258.76,173.21l111.56-34c10.09-3.07,15.86-13.46,12.89-23.2L235.12,161.14C238.09,170.88,248.67,176.28,258.76,173.21Z" transform="translate(-62.3 -93)" style="fill:#3b8ecc"/></g><path d="M339.91,228.68l-6,1.83-3.7-12.15a5.14,5.14,0,0,0-3.9-3.51L241.42,201a11.22,11.22,0,0,1-8.62-7.64l-6.41-21a11.44,11.44,0,0,1,7.84-14.12L236,164a5.26,5.26,0,0,0-3.61,6.49l6.41,21a5.14,5.14,0,0,0,3.9,3.5l84.88,13.83a11.23,11.23,0,0,1,8.62,7.64Z" transform="translate(-62.3 -93)" style="fill:#8b8d96"/><g style="opacity:0.1"><path d="M348.25,306.14a14.32,14.32,0,0,0,12.61,2.06,14,14,0,0,0,9.58-17.25L354.6,239S370.08,298,348.25,306.14Z" transform="translate(-62.3 -93)" style="fill:#272525"/></g><ellipse cx="357.21" cy="296.22" rx="4.64" ry="4.48" transform="translate(-133.15 24.02) rotate(-16.95)" style="fill:#ffbc57"/></svg>
